<svg width="22" height="50" viewBox="0 0 22 50" fill="none" xmlns="http://www.w3.org/2000/svg">
<path d="M9.58575 4.9366L2.67354 11.2396C2.29178 11.5877 1.7077 11.5877 1.32595 11.2396L0.810337 10.7694C0.375397 10.3728 0.375397 9.68822 0.810337 9.29161L10.3262 0.61441C10.708 0.266304 11.292 0.266304 11.6738 0.61441L21.1897 9.29161C21.6246 9.68822 21.6246 10.3728 21.1897 10.7694L20.6741 11.2396C20.2923 11.5877 19.7082 11.5877 19.3265 11.2396L12.4142 4.9366L12.4142 49C12.4142 49.5523 11.9665 50 11.4142 50H10.5858C10.0335 50 9.58575 49.5523 9.58575 49L9.58575 4.9366Z" fill="#E15544"/>
</svg>
