<svg width="59" height="58" viewBox="0 0 59 58" fill="none" xmlns="http://www.w3.org/2000/svg">
<path d="M3.99492 1.5019L54.7634 1.5019C56.1422 1.50208 57.2603 2.62272 57.2603 4.00507L57.2602 53.9951C57.2602 55.3774 56.1422 56.4981 54.7634 56.4982L3.99492 56.4982C2.61601 56.4982 1.49817 55.3775 1.4981 53.9951L1.4981 4.00507C1.4981 2.62261 2.61597 1.5019 3.99492 1.5019Z" fill="#E15544" stroke="#E15544" stroke-width="3"/>
<path d="M26.1672 38.2574C26.1672 37.1329 26.1915 36.1796 26.2403 35.3973C26.3053 34.6151 26.4435 33.9062 26.6548 33.2706C26.8661 32.6513 27.1831 32.081 27.6058 31.5595C28.0284 31.0217 28.6217 30.4513 29.3857 29.8483C29.9384 29.3431 30.4911 28.8135 31.0438 28.2594C31.5965 27.689 32.1004 27.1023 32.5555 26.4993C32.9944 25.9127 33.352 25.3097 33.6284 24.6904C33.9047 24.0711 34.0429 23.4519 34.0429 22.8326C34.0429 22.083 33.9372 21.4392 33.7259 20.9014C33.5146 20.3474 33.2139 19.8911 32.8237 19.5325C32.4174 19.2066 31.9216 18.9621 31.3364 18.7992C30.7674 18.6362 30.1091 18.5547 29.3613 18.5547C28.7761 18.5547 28.2072 18.6362 27.6545 18.7992C27.1018 18.9458 26.6142 19.1903 26.1915 19.5325C25.7526 19.8748 25.395 20.3148 25.1187 20.8526C24.8586 21.3903 24.7204 22.0341 24.7042 22.7837L17.9013 22.7837C17.9175 21.1215 18.2264 19.6792 18.8279 18.4569C19.4293 17.2184 20.2421 16.1917 21.2662 15.3769C22.2902 14.562 23.4931 13.9591 24.8749 13.5679C26.2566 13.1605 27.7521 12.9568 29.3613 12.9568C31.1657 12.9568 32.7831 13.1605 34.2136 13.5679C35.644 13.9754 36.8551 14.5783 37.8467 15.3769C38.822 16.1917 39.5697 17.194 40.0899 18.3836C40.6101 19.5733 40.8702 20.9503 40.8702 22.5148C40.8702 23.6719 40.6751 24.7312 40.285 25.6927C39.8948 26.6379 39.3909 27.5179 38.7732 28.3327C38.1555 29.1639 37.4484 29.9542 36.6519 30.7039C35.8716 31.4372 35.0832 32.1543 34.2867 32.855C33.7991 33.3439 33.4171 33.7758 33.1407 34.1506C32.8644 34.5255 32.6693 34.9084 32.5555 35.2995C32.4255 35.6907 32.3442 36.1225 32.3117 36.5951C32.2792 37.0514 32.2629 37.6055 32.2629 38.2574L26.1672 38.2574ZM25.1675 45.6642C25.1675 44.5886 25.5169 43.6923 26.2159 42.9753C26.9149 42.2419 27.8821 41.8752 29.1175 41.8752C30.3204 41.8752 31.2795 42.2419 31.9947 42.9753C32.7262 43.6923 33.092 44.5886 33.092 45.6642C33.092 46.7072 32.7262 47.5872 31.9947 48.3043C31.2795 49.005 30.3204 49.3554 29.1175 49.3554C27.8821 49.3554 26.9149 49.005 26.2159 48.3043C25.5169 47.5872 25.1675 46.7072 25.1675 45.6642Z" fill="#02F4BF"/>
</svg>
