<svg width="29" height="30" viewBox="0 0 29 30" fill="none" xmlns="http://www.w3.org/2000/svg">
<path d="M23.6648 5H4.73272C3.43114 5 2.37804 6.125 2.37804 7.5L2.36621 22.5C2.36621 23.875 3.43114 25 4.73272 25H23.6648C24.9663 25 26.0313 23.875 26.0313 22.5V7.5C26.0313 6.125 24.9663 5 23.6648 5ZM23.1915 10.3125L14.8259 15.8375C14.4472 16.0875 13.9503 16.0875 13.5716 15.8375L5.20602 10.3125C4.9102 10.1125 4.73272 9.775 4.73272 9.4125C4.73272 8.575 5.59649 8.075 6.27094 8.5125L14.1987 13.75L22.1265 8.5125C22.801 8.075 23.6648 8.575 23.6648 9.4125C23.6648 9.775 23.4873 10.1125 23.1915 10.3125Z" fill="#02F4BF"/>
</svg>
