<svg width="27" height="31" viewBox="0 0 27 31" fill="none" xmlns="http://www.w3.org/2000/svg">
<path d="M7.24073 13.909C8.81578 17.557 11.3533 20.5348 14.4487 22.4039L16.8551 19.568C17.1504 19.2199 17.5879 19.1039 17.9707 19.2586C19.1958 19.7355 20.5192 19.9934 21.8755 19.9934C22.4771 19.9934 22.9693 20.5734 22.9693 21.2824V25.7812C22.9693 26.4902 22.4771 27.0703 21.8755 27.0703C11.6049 27.0703 3.28125 17.2605 3.28125 5.15625C3.28125 4.44727 3.77345 3.86719 4.37503 3.86719H8.20326C8.80484 3.86719 9.29704 4.44727 9.29704 5.15625C9.29704 6.76758 9.5158 8.31445 9.9205 9.7582C10.0408 10.2094 9.95331 10.7121 9.64705 11.073L7.24073 13.909Z" fill="#E15544"/>
</svg>
