<svg width="60" height="60" viewBox="0 0 60 60" fill="none" xmlns="http://www.w3.org/2000/svg">
<g clip-path="url(#clip0_3945_2876)">
<path d="M7.9 9.80005V50.3C3 44.9 0 37.8 0 30C0 22.2 3 15.1 7.9 9.80005Z" fill="#02F4BF"/>
<path d="M11.0996 14.2L28.3996 48.9H11.0996V14.2Z" fill="#02F4BF"/>
<path d="M30 45.0001L13 11.1001H47L30 45.0001Z" fill="#02F4BF"/>
<path d="M29.9998 0C37.7998 0 44.8998 3 50.1998 7.9H9.7998C15.0998 3 22.1998 0 29.9998 0Z" fill="#02F4BF"/>
<path d="M48.8996 48.9H31.5996L48.8996 14.2V48.9Z" fill="#02F4BF"/>
<path d="M50.1998 52.1001C44.8998 57.0001 37.7998 60.0001 29.9998 60.0001C22.1998 60.0001 15.0998 57.0001 9.7998 52.1001H50.1998Z" fill="#02F4BF"/>
<path d="M52.0996 50.2001V9.80005C56.9996 15.1 59.9996 22.2 59.9996 30C59.9996 37.8 56.9996 44.9001 52.0996 50.2001Z" fill="#02F4BF"/>
<path d="M11.0996 14.2002L28.3996 48.9002H11.0996V14.2002Z" fill="#02F4BF"/>
<path d="M30 45.0001L13 11.1001H47L30 45.0001Z" fill="#02F4BF"/>
<path d="M31.5996 48.9002L48.8996 14.2002V48.9002H31.5996Z" fill="#02F4BF"/>
<path d="M13 11.1001H47L30 45.0001L13 11.1001Z" fill="#02F4BF"/>
</g>
<defs>
<clipPath id="clip0_3945_2876">
<rect width="60" height="60" fill="white"/>
</clipPath>
</defs>
</svg>
