<svg width="64" height="64" viewBox="0 0 64 64" fill="none" xmlns="http://www.w3.org/2000/svg">
<path d="M31.5262 43.5602C48.2473 43.5602 61.8025 38.3846 61.8025 32.0002C61.8025 25.6158 48.2473 20.4402 31.5262 20.4402C14.8051 20.4402 1.25 25.6158 1.25 32.0002C1.25 38.3846 14.8051 43.5602 31.5262 43.5602Z" stroke="#02F4BF" stroke-width="2.5"/>
<path d="M21.515 37.7802C29.8755 52.2611 41.1353 61.4123 46.6644 58.2201C52.1935 55.0279 49.8981 40.7011 41.5375 26.2202C33.177 11.7393 21.9172 2.58804 16.3881 5.78024C10.8591 8.97245 13.1544 23.2993 21.515 37.7802Z" stroke="#02F4BF" stroke-width="2.5"/>
<path d="M21.5141 26.22C13.1536 40.7009 10.8582 55.0277 16.3873 58.2199C21.9164 61.4121 33.1761 52.2609 41.5367 37.78C49.8972 23.2991 52.1926 8.97227 46.6635 5.78006C41.1345 2.58786 29.8747 11.7391 21.5141 26.22Z" stroke="#02F4BF" stroke-width="2.5"/>
<path d="M31.5264 26.8577C34.3663 26.8578 36.6689 29.1603 36.6689 32.0002C36.6688 34.8401 34.3663 37.1427 31.5264 37.1428C28.6864 37.1428 26.3839 34.8402 26.3838 32.0002C26.3838 29.1602 28.6863 26.8577 31.5264 26.8577Z" fill="#02F4BF" stroke="#02F4BF"/>
</svg>
