<svg width="65" height="60" viewBox="0 0 65 60" fill="none" xmlns="http://www.w3.org/2000/svg">
<path fill-rule="evenodd" clip-rule="evenodd" d="M62.7502 15.7639L57.0684 23.7083L51.3866 15.7639H54.4845C54.2484 9.86111 49.3723 5.13889 43.4127 5.13889C38.3838 5.13889 34.119 8.51389 32.7715 13.1111C31.1322 12.5833 29.4374 12.25 27.7148 12.0972C27.9093 11.3611 28.1594 10.625 28.465 9.91667C29.2846 7.98611 30.4515 6.25 31.938 4.76389C33.4244 3.27778 35.1609 2.09722 37.0919 1.29167C39.0923 0.430556 41.2178 0 43.4127 0C45.6076 0 47.7331 0.430556 49.7335 1.27778C51.6645 2.09722 53.401 3.26389 54.8874 4.75C56.3738 6.23611 57.5408 7.97222 58.3604 9.90278C59.1522 11.7639 59.5829 13.7361 59.6245 15.7639H62.7502Z" fill="#02F4BF"/>
<path fill-rule="evenodd" clip-rule="evenodd" d="M54.8034 59.9999V56.5832H35.2158C35.3547 56.5138 35.4937 56.4582 35.6326 56.3888C37.758 55.3749 39.7168 54.0554 41.4672 52.4443C41.7033 52.2221 41.9256 52.0138 42.134 51.8054C42.3701 51.5693 42.6202 51.3193 42.8564 51.0554C43.1342 50.7499 43.412 50.4304 43.6621 50.111H54.8034V46.6943L64.111 53.3471L54.8034 59.9999Z" fill="#02F4BF"/>
<path fill-rule="evenodd" clip-rule="evenodd" d="M47.5798 35.3195C47.5798 38.2778 46.9963 41.1528 45.8572 43.8611C44.8847 46.1667 43.5233 48.2778 41.8285 50.125C41.6062 50.3611 41.384 50.5973 41.1617 50.8334C40.9533 51.0417 40.7449 51.2361 40.5366 51.4445C38.8973 52.9584 37.0636 54.1945 35.0631 55.1528C34.7853 55.2917 34.4936 55.4167 34.2019 55.5417C34.188 55.5417 34.188 55.5556 34.1741 55.5556C32.507 56.2639 30.715 56.6111 28.8951 56.6111H0V50.1528H26.8253C34.9381 50.1528 41.5923 43.6667 41.7035 35.5556C41.7035 35.4861 41.7035 35.4167 41.7035 35.3473C41.7035 26.4861 34.5075 19.2917 25.6444 19.2917C16.7814 19.2639 9.58541 26.4445 9.58541 35.3195H13.3084L6.65422 44.625L0 35.3195H3.72303C3.72303 32.3611 4.30649 29.4861 5.44562 26.7778C6.55698 24.1667 8.12676 21.8195 10.1411 19.8056C12.1554 17.7917 14.5031 16.2084 17.1148 15.1111C19.8237 13.9722 22.6994 13.3889 25.6583 13.3889C26.2557 13.3889 26.8391 13.4167 27.4226 13.4584C29.1452 13.5972 30.8261 13.9306 32.4654 14.4722C33.0488 14.6667 33.6184 14.875 34.188 15.125C36.7996 16.2361 39.1474 17.8056 41.1617 19.8195C43.176 21.8334 44.7597 24.1806 45.8572 26.7917C46.9963 29.4861 47.5798 32.3611 47.5798 35.3195Z" fill="#02F4BF"/>
</svg>
