<svg width="62" height="56" viewBox="0 0 62 56" fill="none" xmlns="http://www.w3.org/2000/svg">
<path d="M29.9658 30.0322H56.4395C57.1298 30.0322 57.6895 30.5919 57.6895 31.2822V48.3203H28.7158V31.2822C28.7158 30.5919 29.2755 30.0322 29.9658 30.0322Z" fill="#1E0A7D" stroke="#02F4BF" stroke-width="1.5"/>
<path d="M24.5938 50.6375H61.6846V52.1333C61.6846 53.7902 60.3414 55.1333 58.6846 55.1333H27.5938C25.9369 55.1333 24.5938 53.7902 24.5938 52.1333V50.6375Z" fill="#02F4BF"/>
<rect x="40.3291" y="51.7615" width="6.74379" height="1.12396" rx="0.561982" fill="#140754"/>
<path d="M31.0936 10.6575C18.2971 9.39372 9.59367 17.6574 9.59354 30.1574" stroke="#E15544" stroke-width="2" stroke-linecap="round"/>
<path d="M30.5934 21.6576C24.0933 20.6576 21.5935 24.1575 20.8191 30.1721" stroke="#E15544" stroke-width="2" stroke-linecap="round"/>
<path d="M31.0937 16.1575C21.0305 15.1917 15.3358 21.1605 14.9323 30.0374" stroke="#E15544" stroke-width="2" stroke-linecap="round"/>
</svg>
